<?xml version="1.0" encoding="utf-8"?>
<!-- Generator: Adobe Illustrator 17.1.0, SVG Export Plug-In . SVG Version: 6.00 Build 0)  -->
<!DOCTYPE svg PUBLIC "-//W3C//DTD SVG 1.1//EN" "http://www.w3.org/Graphics/SVG/1.1/DTD/svg11.dtd">
<svg version="1.1"
	 id="svg2" inkscape:version="0.48.2 r9819" sodipodi:docname="New document 1" xmlns:svg="http://www.w3.org/2000/svg" xmlns:cc="http://creativecommons.org/ns#" xmlns:rdf="http://www.w3.org/1999/02/22-rdf-syntax-ns#" xmlns:dc="http://purl.org/dc/elements/1.1/" xmlns:sodipodi="http://sodipodi.sourceforge.net/DTD/sodipodi-0.dtd" xmlns:inkscape="http://www.inkscape.org/namespaces/inkscape"
	 xmlns="http://www.w3.org/2000/svg" xmlns:xlink="http://www.w3.org/1999/xlink" x="0px" y="0px" viewBox="115 -11.8 70 70"
	 enable-background="new 115 -11.8 70 70" xml:space="preserve">
<sodipodi:namedview  id="base" inkscape:window-maximized="1" inkscape:document-units="px" fit-margin-right="0.5" inkscape:pageshadow="2" inkscape:window-width="1920" inkscape:current-layer="g2993" inkscape:window-x="-8" inkscape:pageopacity="0.0" inkscape:window-height="1028" fit-margin-bottom="0.5" inkscape:window-y="-8" inkscape:zoom="1.979899" bordercolor="#666666" fit-margin-top="0.5" fit-margin-left="0.5" inkscape:cx="247.82949" showgrid="false" borderopacity="1.0" inkscape:cy="-39.177568" pagecolor="#ffffff">
	</sodipodi:namedview>
<g id="layer1" transform="translate(-137.89356,-32.599422)" inkscape:groupmode="layer" inkscape:label="Layer 1">
	<g id="g2993" transform="matrix(1.25,0,0,-1.25,-428.21429,879.32551)" inkscape:label="US_Airways_Side_by_Side_Factsheet">
		<g id="g5437">
		</g>
		<g id="g5451" transform="matrix(1.3439297,0,0,1.3439297,230.19543,-269.75452)">
			<g id="layer1-8" transform="matrix(0.72462467,0,0,-0.72462467,-193.02879,488.4987)" inkscape:label="Layer 1">
				<g id="g5423" transform="matrix(0.07116922,0,0,0.07116922,677.12796,-316.7662)">
					
						<linearGradient id="path3016_1_" gradientUnits="userSpaceOnUse" x1="-24277.1797" y1="-7265.2339" x2="-24277.1797" y2="-7577.5112" gradientTransform="matrix(8.663470e-02 0 0 -8.663470e-02 1434.0479 -45.6471)">
						<stop  offset="0" style="stop-color:#EB2023"/>
						<stop  offset="9.626903e-02" style="stop-color:#E92026"/>
						<stop  offset="0.2039" style="stop-color:#E31E27"/>
						<stop  offset="0.2986" style="stop-color:#E01E26"/>
						<stop  offset="0.4043" style="stop-color:#D81F27"/>
						<stop  offset="0.5" style="stop-color:#CF2027"/>
						<stop  offset="0.6" style="stop-color:#C62127"/>
						<stop  offset="0.7" style="stop-color:#B92025"/>
						<stop  offset="0.8" style="stop-color:#AE1F23"/>
						<stop  offset="0.9" style="stop-color:#A01D22"/>
						<stop  offset="1" style="stop-color:#901C1C"/>
					</linearGradient>
					<path id="path3016" sodipodi:nodetypes="ccccccccc" inkscape:connector-curvature="0" fill="url(#path3016_1_)" d="
						M-882.1,690.4l86.5,143.8c26.8,43.1,71,62.7,126.1,62.7h222.6L-707.5,581l-37-21.1l-97.6,31.8l-49.4,71.5L-882.1,690.4z"/>
					
						<linearGradient id="path3018_1_" gradientUnits="userSpaceOnUse" x1="-27029.627" y1="-8046.0381" x2="-26856.127" y2="-7934.9282" gradientTransform="matrix(8.663470e-02 0 0 -8.663470e-02 1434.0479 -45.6471)">
						<stop  offset="0" style="stop-color:#6C221F"/>
						<stop  offset="0.2491" style="stop-color:#7F2620"/>
						<stop  offset="0.4983" style="stop-color:#982B24"/>
						<stop  offset="0.7491" style="stop-color:#B53125"/>
						<stop  offset="1" style="stop-color:#CB3327"/>
					</linearGradient>
					<path id="path3018" sodipodi:nodetypes="cccccc" inkscape:connector-curvature="0" fill="url(#path3018_1_)" d="M-707.5,581
						l-54.4-66l-143.8,77.3l15.3,78.1l8.4,19.9C-885.4,637.5-794.5,576.1-707.5,581z"/>
					
						<linearGradient id="path3014_1_" gradientUnits="userSpaceOnUse" x1="-27316.0488" y1="-7429.7681" x2="-27061.8594" y2="-7282.7012" gradientTransform="matrix(8.663470e-02 0 0 -8.663470e-02 1434.0479 -45.6471)">
						<stop  offset="0" style="stop-color:#E7EBEE"/>
						<stop  offset="0.2491" style="stop-color:#DFE4E8"/>
						<stop  offset="0.4983" style="stop-color:#CAD1D7"/>
						<stop  offset="0.7491" style="stop-color:#A8B5BD"/>
						<stop  offset="1" style="stop-color:#93A6AD"/>
					</linearGradient>
					<path id="path3014" sodipodi:nodetypes="ccccccccc" inkscape:connector-curvature="0" fill="url(#path3014_1_)" d="
						M-882.1,690.4l-77.8-128.6c-9.4-14.6-11.9-27.4-11.9-42.2c0-16.4,7-25.3,33.8-39.5c31.2-14.9,94-21.4,158.8-21.4
						c105.2,0,130.5,33.8,141.2,70.2c0,0-14.9-5.9-49.8-5.9c-110.9,0-199.5,53.8-199.5,135.3C-887.4,675.3-882.1,690.4-882.1,690.4z
						"/>
					
						<linearGradient id="path3012_1_" gradientUnits="userSpaceOnUse" x1="-28294.0801" y1="-2178.9888" x2="-28294.0801" y2="-2480.9299" gradientTransform="matrix(8.663470e-02 0 0 -8.663470e-02 1434.0479 -45.6471)">
						<stop  offset="0" style="stop-color:#05AEE9"/>
						<stop  offset="9.626903e-02" style="stop-color:#00A9E0"/>
						<stop  offset="0.2039" style="stop-color:#07A3DC"/>
						<stop  offset="0.2986" style="stop-color:#089DD5"/>
						<stop  offset="0.4043" style="stop-color:#0A92CC"/>
						<stop  offset="0.5" style="stop-color:#0F87C3"/>
						<stop  offset="0.6" style="stop-color:#127CB8"/>
						<stop  offset="0.7" style="stop-color:#0E70AD"/>
						<stop  offset="0.8" style="stop-color:#0F63A3"/>
						<stop  offset="0.9" style="stop-color:#135393"/>
						<stop  offset="1" style="stop-color:#184485"/>
					</linearGradient>
					<path id="path3012" sodipodi:nodetypes="ccccccc" inkscape:connector-curvature="0" fill="url(#path3012_1_)" d="
						M-1216.3,143.1h104.7c44.1,0,62.2,18.1,80.1,35.8c20.4,18.6,82.4,102.5,213.4,266.2h-141.8c-58,0-76.3-9.9-98.8-44.1
						L-1216.3,143.1z"/>
				</g>
			</g>
		</g>
	</g>
</g>
</svg>
