<?xml version="1.0" encoding="utf-8"?>
<!-- Generator: Adobe Illustrator 21.1.0, SVG Export Plug-In . SVG Version: 6.00 Build 0)  -->
<svg version="1.1" id="Layer_1" xmlns="http://www.w3.org/2000/svg" xmlns:xlink="http://www.w3.org/1999/xlink" x="0px" y="0px"
	 viewBox="0 0 70 70" style="enable-background:new 0 0 70 70;" xml:space="preserve">
<style type="text/css">
	.st0{fill:none;}
	.st1{fill:#294B9C;}
</style>
<rect class="st0" width="70" height="70"/>
<path class="st1" d="M1.5,8.6C7.7,8,10.8,11.7,12,15.4C13.9,24.1,9.5,31.5,1.5,37c0-3.1,0-3.1,0-3.1c1.2-0.6,3.7-2.5,4.3-3.1
	c-1.2-0.6-3.1-0.6-4.3-0.6c0-3.7,0-3.7,0-3.7c1.9,0,4.9,0,6.8,0.6c0.6-1.2,1.2-2.5,1.2-3.7c-1.9,0-5.6,0-8,0c0-2.5,0-2.5,0-2.5
	c2.5-0.6,6.8-1.2,8.7-0.6c0-1.2,0-1.9,0-3.1c-1.9,0-6.2,0.6-8.7,1.2c0-1.9,0-1.9,0-1.9c1.9-1.2,6.2-1.9,8-1.9c0-0.6-0.6-1.9-1.2-2.5
	C7.1,13,4,13.6,1.5,14.2c0-1.9,0-1.9,0-1.9c1.2-0.6,3.7-1.2,4.9-1.2C5.8,10.5,4,9.9,1.5,9.9V8.6L1.5,8.6z"/>
<path class="st1" d="M7.1,7.4c13.6-2.5,19.7,3.7,16,18.6C19.4,38.3,12,46.3,1.5,52.5c0-6.2,0-6.2,0-6.2c0.6,0,1.9,1.2,2.5,1.9
	c0.6-0.6,2.5-1.2,3.1-2.5c-0.6-1.2-3.7-4.3-5.6-4.9v-0.6c1.9-1.2,4.3-3.1,5.6-4.3c1.2,0.6,4.9,3.7,5.6,4.9c1.2-1.2,3.1-3.7,3.7-4.9
	c-1.9-1.2-4.3-3.1-6.2-3.7c1.2-1.2,1.9-3.1,2.5-4.3c1.9,0.6,4.9,1.2,6.2,2.5c1.2-1.2,1.9-3.1,1.9-4.9c-1.2-0.6-4.3-1.2-6.2-1.2
	c0-1.2,0-3.1,0-3.7c2.5,0,5.6,0,7.4,0.6c0-1.2,0-2.5,0-3.7c-1.9,0-5.6,0-7.4,0c0-1.2-0.6-2.5-0.6-3.1c1.9,0,4.9,0,7.4,0
	c-0.6-1.2-0.6-1.9-1.9-2.5c-1.2-0.6-4.3,0-6.8,0c0-0.6-0.6-1.2-1.9-1.9c1.9-0.6,4.3-0.6,5.6-0.6C15.1,8.6,13.2,8,9.5,8.6
	C8.3,8,7.1,7.4,7.1,7.4L7.1,7.4z"/>
<path class="st1" d="M68.9,68c0-66.7,0-66.7,0-66.7c-67.4,0-67.4,0-67.4,0c0,5.6,0,5.6,0,5.6c9.9-3.1,29-1.2,40.2,8.7
	c8.7,8,14.8,17.9,15.5,32.1c0.6,8.7-1.9,16.1-3.7,20.4L68.9,68L68.9,68z"/>
<path class="st1" d="M30.5,16.1c-1.2-0.6-3.1-1.2-4.9-1.2c0.6,0.6,0.6,1.9,0.6,3.1c1.9,0,4.3,1.2,5.6,1.2c0.6,1.9,0.6,3.1,0.6,4.9
	c-1.9-1.2-4.3-1.9-6.2-2.5c0,1.2-0.6,3.1-1.2,4.9c2.5,0.6,5.6,1.9,6.8,3.1c-0.6,1.9-1.2,4.3-1.9,6.2c-1.9-1.2-4.9-3.1-6.8-4.3
	c-0.6,1.9-1.9,5.6-3.1,6.8c1.2,1.2,4.3,3.7,5.6,4.9c-1.2,1.9-3.1,3.7-4.3,5.6c-1.2-1.9-3.1-4.9-4.9-6.2c-1.2,2.5-3.7,5.6-6.2,6.8
	c1.2,1.2,3.7,3.7,4.3,5.6c-1.2,0.6-3.1,2.5-4.9,3.1c-0.6-1.9-1.9-4.3-3.1-5.6c-1.2,0.6-3.1,1.9-4.9,3.1c0,9.3,0,9.3,0,9.3
	C14,60.6,30,47.6,33.7,30.3c1.9-8,0-13-1.9-16.1c-2.5-4.3-8-5.6-10.5-5.6c1.2,0.6,2.5,1.9,3.1,2.5C28.7,12.4,29.9,14.2,30.5,16.1
	L30.5,16.1z"/>
<path class="st1" d="M1.5,68c0-0.6,0-0.6,0-0.6c4.3-1.2,8.7-3.7,10.5-5.6c0.6,1.9,1.2,4.3,1.9,6.2c1.2-1.2,3.7-2.5,4.9-4.3
	c0-1.2-1.2-3.1-1.9-4.9c2.5-1.2,5.6-4.3,7.4-6.8c0.6,1.2,1.9,3.1,2.5,4.9c1.9-1.9,3.7-4.3,4.9-6.2c-0.6-1.9-1.9-3.1-3.1-4.3
	c1.9-2.5,4.3-6.2,4.3-8c1.2,0.6,3.1,2.5,3.7,3.7c1.2-2.5,2.5-4.9,3.1-8c-1.2-0.6-2.5-1.9-4.3-2.5c0.6-1.9,1.2-4.3,1.2-6.2
	c1.2,0.6,2.5,1.9,3.7,2.5c0-1.9,0-3.7-0.6-4.9c-0.6-1.2-2.5-1.9-3.7-2.5c0-1.2-0.6-2.5-0.6-3.1c0.6,0,2.5,1.2,3.1,1.9
	c-0.6-1.9-2.5-3.7-3.7-3.7c-0.6-1.2-1.2-2.5-2.5-3.1c8,2.5,8.7,8,9.3,10.5c1.2,8,0,15.4-3.7,22.9C33,54.4,27.5,59.9,17.6,68H1.5
	L1.5,68L1.5,68L1.5,68z"/>
<path class="st1" d="M20.7,68c3.7-2.5,6.2-4.3,8.7-7.4c0.6,1.9,1.2,4.9,1.2,4.9c1.2-1.2,4.9-4.9,6.2-7.4c-0.6-0.6-1.2-2.5-1.9-3.7
	c1.9-1.9,4.3-6.2,4.9-8.7c1.2,0.6,1.9,2.5,2.5,3.7c1.2-3.1,2.5-6.2,3.1-9.9c0-0.6-1.2-1.9-1.9-3.1c0.6-1.9,0.6-4.3,0.6-6.2
	c0.6,0,1.9,1.9,2.5,3.1c0-3.7,0-6.2-2.5-8c0-1.2-0.6-3.1-1.2-4.3c3.7,2.5,6.2,6.2,5.6,14.2c-1.2,13-8.7,24.7-17.3,32.8H20.7L20.7,68
	z"/>
<path class="st1" d="M44.8,68c1.9-1.9,3.1-3.1,3.7-5.6c0.6,1.2,0.6,2.5,0.6,3.7c0.6-1.2,3.7-6.2,3.7-13c0.6-3.1,1.2-6.8,1.9-9.9
	c0.6,4.9,0.6,15.4-3.7,24.7L44.8,68L44.8,68L44.8,68z"/>
<path class="st1" d="M51.6,38.9c0-1.2-0.6-3.7-1.2-4.9c0-0.6,0-3.1-0.6-4.3c1.9,2.5,3.7,5.6,3.1,12.4c-1.2,9.9-3.7,19.2-11.1,26
	c-3.1,0-3.1,0-3.1,0c0-0.6,0-3.1,0-4.3c2.5-2.5,5.6-7.4,6.2-10.5c1.2,1.2,1.2,3.1,1.9,4.9c1.9-3.7,3.1-8.7,3.7-11.7
	c-0.6-1.2-1.2-2.5-1.2-3.1c0.6-1.9,1.2-4.9,1.2-6.2C50.3,37.1,50.9,38.3,51.6,38.9L51.6,38.9z"/>
</svg>
